<svg width="121" height="80" viewBox="0 0 121 80" fill="none" xmlns="http://www.w3.org/2000/svg">
<line x1="0.5" y1="79.5" x2="0.5" y2="0.5" stroke="black" stroke-linecap="round"/>
<line x1="60.5" y1="58.5" x2="60.5" y2="19.5" stroke="black" stroke-linecap="round"/>
<line x1="90.5" y1="53.5" x2="90.5" y2="24.5" stroke="black" stroke-linecap="round"/>
<line x1="30.5" y1="53.5" x2="30.5" y2="24.5" stroke="black" stroke-linecap="round"/>
<line x1="10.75" y1="48.75" x2="10.75" y2="29.25" stroke="black" stroke-width="0.5" stroke-linecap="round"/>
<line x1="20.75" y1="48.75" x2="20.75" y2="29.25" stroke="black" stroke-width="0.5" stroke-linecap="round"/>
<line x1="22.75" y1="43.75" x2="22.75" y2="34.25" stroke="black" stroke-width="0.5" stroke-linecap="round"/>
<line x1="24.75" y1="43.75" x2="24.75" y2="34.25" stroke="black" stroke-width="0.5" stroke-linecap="round"/>
<line x1="26.75" y1="43.75" x2="26.75" y2="34.25" stroke="black" stroke-width="0.5" stroke-linecap="round"/>
<line x1="28.75" y1="43.75" x2="28.75" y2="34.25" stroke="black" stroke-width="0.5" stroke-linecap="round"/>
<line x1="12.75" y1="43.75" x2="12.75" y2="34.25" stroke="black" stroke-width="0.5" stroke-linecap="round"/>
<line x1="14.75" y1="43.75" x2="14.75" y2="34.25" stroke="black" stroke-width="0.5" stroke-linecap="round"/>
<line x1="16.75" y1="43.75" x2="16.75" y2="34.25" stroke="black" stroke-width="0.5" stroke-linecap="round"/>
<line x1="18.75" y1="43.75" x2="18.75" y2="34.25" stroke="black" stroke-width="0.5" stroke-linecap="round"/>
<line x1="2.75" y1="43.75" x2="2.75" y2="34.25" stroke="black" stroke-width="0.5" stroke-linecap="round"/>
<line x1="4.75" y1="43.75" x2="4.75" y2="34.25" stroke="black" stroke-width="0.5" stroke-linecap="round"/>
<line x1="6.75" y1="43.75" x2="6.75" y2="34.25" stroke="black" stroke-width="0.5" stroke-linecap="round"/>
<line x1="8.75" y1="43.75" x2="8.75" y2="34.25" stroke="black" stroke-width="0.5" stroke-linecap="round"/>
<line x1="40.75" y1="48.75" x2="40.75" y2="29.25" stroke="black" stroke-width="0.5" stroke-linecap="round"/>
<line x1="50.75" y1="48.75" x2="50.75" y2="29.25" stroke="black" stroke-width="0.5" stroke-linecap="round"/>
<line x1="52.75" y1="43.75" x2="52.75" y2="34.25" stroke="black" stroke-width="0.5" stroke-linecap="round"/>
<line x1="54.75" y1="43.75" x2="54.75" y2="34.25" stroke="black" stroke-width="0.5" stroke-linecap="round"/>
<line x1="56.75" y1="43.75" x2="56.75" y2="34.25" stroke="black" stroke-width="0.5" stroke-linecap="round"/>
<line x1="58.75" y1="43.75" x2="58.75" y2="34.25" stroke="black" stroke-width="0.5" stroke-linecap="round"/>
<line x1="42.75" y1="43.75" x2="42.75" y2="34.25" stroke="black" stroke-width="0.5" stroke-linecap="round"/>
<line x1="44.75" y1="43.75" x2="44.75" y2="34.25" stroke="black" stroke-width="0.5" stroke-linecap="round"/>
<line x1="46.75" y1="43.75" x2="46.75" y2="34.25" stroke="black" stroke-width="0.5" stroke-linecap="round"/>
<line x1="48.75" y1="43.75" x2="48.75" y2="34.25" stroke="black" stroke-width="0.5" stroke-linecap="round"/>
<line x1="32.75" y1="43.75" x2="32.75" y2="34.25" stroke="black" stroke-width="0.5" stroke-linecap="round"/>
<line x1="34.75" y1="43.75" x2="34.75" y2="34.25" stroke="black" stroke-width="0.5" stroke-linecap="round"/>
<line x1="36.75" y1="43.75" x2="36.75" y2="34.25" stroke="black" stroke-width="0.5" stroke-linecap="round"/>
<line x1="38.75" y1="43.75" x2="38.75" y2="34.25" stroke="black" stroke-width="0.5" stroke-linecap="round"/>
<line x1="70.75" y1="48.75" x2="70.75" y2="29.25" stroke="black" stroke-width="0.5" stroke-linecap="round"/>
<line x1="80.75" y1="48.75" x2="80.75" y2="29.25" stroke="black" stroke-width="0.5" stroke-linecap="round"/>
<line x1="82.75" y1="43.75" x2="82.75" y2="34.25" stroke="black" stroke-width="0.5" stroke-linecap="round"/>
<line x1="84.75" y1="43.75" x2="84.75" y2="34.25" stroke="black" stroke-width="0.5" stroke-linecap="round"/>
<line x1="86.75" y1="43.75" x2="86.75" y2="34.25" stroke="black" stroke-width="0.5" stroke-linecap="round"/>
<line x1="88.75" y1="43.75" x2="88.75" y2="34.25" stroke="black" stroke-width="0.5" stroke-linecap="round"/>
<line x1="72.75" y1="43.75" x2="72.75" y2="34.25" stroke="black" stroke-width="0.5" stroke-linecap="round"/>
<line x1="74.75" y1="43.75" x2="74.75" y2="34.25" stroke="black" stroke-width="0.5" stroke-linecap="round"/>
<line x1="76.75" y1="43.75" x2="76.75" y2="34.25" stroke="black" stroke-width="0.5" stroke-linecap="round"/>
<line x1="78.75" y1="43.75" x2="78.75" y2="34.25" stroke="black" stroke-width="0.5" stroke-linecap="round"/>
<line x1="62.75" y1="43.75" x2="62.75" y2="34.25" stroke="black" stroke-width="0.5" stroke-linecap="round"/>
<line x1="64.75" y1="43.75" x2="64.75" y2="34.25" stroke="black" stroke-width="0.5" stroke-linecap="round"/>
<line x1="66.75" y1="43.75" x2="66.75" y2="34.25" stroke="black" stroke-width="0.5" stroke-linecap="round"/>
<line x1="68.75" y1="43.75" x2="68.75" y2="34.25" stroke="black" stroke-width="0.5" stroke-linecap="round"/>
<line x1="100.75" y1="48.75" x2="100.75" y2="29.25" stroke="black" stroke-width="0.5" stroke-linecap="round"/>
<line x1="110.75" y1="48.75" x2="110.75" y2="29.25" stroke="black" stroke-width="0.5" stroke-linecap="round"/>
<line x1="112.75" y1="43.75" x2="112.75" y2="34.25" stroke="black" stroke-width="0.5" stroke-linecap="round"/>
<line x1="114.75" y1="43.75" x2="114.75" y2="34.25" stroke="black" stroke-width="0.5" stroke-linecap="round"/>
<line x1="116.75" y1="43.75" x2="116.75" y2="34.25" stroke="black" stroke-width="0.5" stroke-linecap="round"/>
<line x1="118.75" y1="43.75" x2="118.75" y2="34.25" stroke="black" stroke-width="0.5" stroke-linecap="round"/>
<line x1="102.75" y1="43.75" x2="102.75" y2="34.25" stroke="black" stroke-width="0.5" stroke-linecap="round"/>
<line x1="104.75" y1="43.75" x2="104.75" y2="34.25" stroke="black" stroke-width="0.5" stroke-linecap="round"/>
<line x1="106.75" y1="43.75" x2="106.75" y2="34.25" stroke="black" stroke-width="0.5" stroke-linecap="round"/>
<line x1="108.75" y1="43.75" x2="108.75" y2="34.25" stroke="black" stroke-width="0.5" stroke-linecap="round"/>
<line x1="92.75" y1="43.75" x2="92.75" y2="34.25" stroke="black" stroke-width="0.5" stroke-linecap="round"/>
<line x1="94.75" y1="43.75" x2="94.75" y2="34.25" stroke="black" stroke-width="0.5" stroke-linecap="round"/>
<line x1="96.75" y1="43.75" x2="96.75" y2="34.25" stroke="black" stroke-width="0.5" stroke-linecap="round"/>
<line x1="98.75" y1="43.75" x2="98.75" y2="34.25" stroke="black" stroke-width="0.5" stroke-linecap="round"/>
</svg>
